# 3ds Max Wavefront OBJ Exporter v0.97b - (c)2007 guruware
# File Created: 09.05.2018 13:36:23

mtllib calle_asfalto_linea.mtl

#
# object carretera
#

v  86.1693 2.0000 200.0000
v  86.1693 -2.0000 200.0000
v  93.8307 -2.0000 200.0000
v  93.8307 2.0000 200.0000
v  86.1693 6.7361 -200.0000
v  86.1693 6.7360 200.0000
v  93.8307 6.7360 200.0000
v  93.8307 6.7361 -200.0000
v  86.1693 -2.0000 -200.0000
v  86.1693 2.0000 -200.0000
v  93.8307 2.0000 -200.0000
v  93.8307 -2.0000 -200.0000
v  -94.9437 -2.0000 -200.0000
v  -94.9437 -2.0000 200.0000
v  -94.9437 2.0000 200.0000
v  -94.9437 2.0000 -200.0000
v  -87.0563 -2.0000 200.0000
v  -87.0563 -2.0000 -200.0000
v  -87.0563 2.0000 -200.0000
v  -87.0563 2.0000 200.0000
v  -94.9437 6.7360 200.0000
v  -87.0563 6.7360 200.0000
v  -87.0563 6.7361 -200.0000
v  -94.9437 6.7361 -200.0000
# 24 vertices

vn 0.0000 -0.0000 1.0000
vn 0.0000 1.0000 0.0000
vn 0.0000 0.0000 -1.0000
vn -0.0000 -1.0000 -0.0000
vn 0.0000 -1.0000 -0.0000
vn 1.0000 0.0000 -0.0000
vn -1.0000 0.0000 -0.0000
vn -0.0000 1.0000 0.0000
# 8 vertex normals

vt 0.9594 0.4579 0.0000
vt 0.9594 -0.0000 0.0000
vt 1.0000 -0.0000 0.0000
vt 1.0000 0.4579 0.0000
vt 0.9594 1.0000 0.0000
vt 1.0000 1.0000 0.0000
vt -0.0000 -0.0000 0.0000
vt -0.0000 0.4579 0.0000
vt 0.0418 -0.0000 0.0000
vt 0.0418 1.0000 0.0000
vt 0.0418 0.0000 0.0000
vt 0.0418 0.4579 0.0000
vt 0.0000 1.0000 0.0000
vt 0.0000 -0.0000 0.0000
vt 0.0000 0.4579 0.0000
vt -0.0000 1.0000 0.0000
# 16 texture coords

g carretera
usemtl mat_limite
s off
f 1/1/1 2/2/1 3/3/1 
f 3/3/1 4/4/1 1/1/1 
f 5/5/2 6/2/2 7/3/2 
f 7/3/2 8/6/2 5/5/2 
f 9/2/3 10/1/3 11/4/3 
f 11/4/3 12/3/3 9/2/3 
f 2/2/4 9/5/4 12/6/5 
f 12/6/5 3/3/5 2/2/4 
f 3/7/6 12/3/6 11/4/6 
f 11/4/6 4/8/6 3/7/6 
f 13/3/7 14/7/7 15/8/7 
f 15/8/7 16/4/7 13/3/7 
f 17/9/5 18/10/5 9/5/4 
f 9/5/4 2/2/4 17/9/5 
f 18/11/3 19/12/3 10/1/3 
f 10/1/3 9/2/3 18/11/3 
usemtl mat_calle
f 19/13/8 20/14/8 1/3/8 
f 1/3/8 10/6/8 19/13/8 
usemtl mat_limite
f 20/12/1 17/11/1 2/2/1 
f 2/2/1 1/1/1 20/12/1 
f 13/13/5 18/10/5 17/9/5 
f 17/9/5 14/14/5 13/13/5 
f 16/15/3 19/12/3 18/11/3 
f 18/11/3 13/14/3 16/15/3 
f 21/14/2 22/9/2 23/10/2 
f 23/10/2 24/13/2 21/14/2 
f 14/14/1 17/11/1 20/12/1 
f 20/12/1 15/15/1 14/14/1 
f 10/4/7 1/8/7 6/16/7 
f 6/16/7 5/6/7 10/4/7 
f 1/1/1 4/4/1 7/6/1 
f 7/6/1 6/5/1 1/1/1 
f 4/8/6 11/4/6 8/6/6 
f 8/6/6 7/16/6 4/8/6 
f 11/4/3 10/1/3 5/5/3 
f 5/5/3 8/6/3 11/4/3 
f 15/15/1 20/12/1 22/10/1 
f 22/10/1 21/13/1 15/15/1 
f 20/8/6 19/4/6 23/6/6 
f 23/6/6 22/16/6 20/8/6 
f 19/12/3 16/15/3 24/13/3 
f 24/13/3 23/10/3 19/12/3 
f 16/4/7 15/8/7 21/16/7 
f 21/16/7 24/6/7 16/4/7 
# 44 faces

