# 3ds Max Wavefront OBJ Exporter v0.97b - (c)2007 guruware
# File Created: 09.05.2018 13:35:49

mtllib calle_asfalto_esquina.mtl

#
# object carretera1
#

v  -86.4998 -4.3680 -94.3579
v  -86.4998 -0.3680 -94.3579
v  94.3872 -0.3680 -94.3579
v  94.3872 -4.3680 -94.3579
v  -94.3872 -0.3680 -94.3579
v  -94.3872 -4.3680 -94.3579
v  -94.3872 4.3681 -94.3579
v  -86.4998 4.3681 -94.3579
v  -94.3872 -4.3681 86.8595
v  -86.4998 -4.3681 86.8594
v  -86.4998 -4.3681 94.3578
v  -94.3872 -4.3681 94.3579
v  94.3872 -4.3681 94.3579
v  94.3872 -4.3681 86.8595
v  94.3872 -0.3681 94.3578
v  94.3872 -0.3681 86.8594
v  94.3872 4.3680 86.8594
v  -86.4998 4.3680 86.8594
v  -86.4998 4.3680 94.3579
v  94.3872 4.3680 94.3578
v  -94.3872 4.3680 94.3578
v  -94.3872 4.3680 86.8594
v  -94.3872 -0.3681 86.8594
v  -94.3872 -0.3681 94.3578
v  -86.4998 -0.3681 86.8594
v  -86.4998 -0.3681 94.3578
# 26 vertices

vn -0.0000 0.0000 -1.0000
vn 0.0000 0.0000 -1.0000
vn 0.0000 -1.0000 -0.0000
vn 0.0221 -0.9998 -0.0000
vn 0.4863 -0.8738 -0.0000
vn 1.0000 0.0000 0.0000
vn 0.0000 1.0000 0.0000
vn -1.0000 0.0000 -0.0000
vn 1.0000 -0.0000 0.0000
vn -0.0000 1.0000 0.0000
vn 1.0000 0.0000 -0.0000
vn 0.0000 -0.0000 1.0000
vn 0.0000 0.0000 1.0000
vn -0.0000 -0.0000 1.0000
vn -0.0000 0.0000 1.0000
vn -0.0000 -1.0000 -0.0000
# 16 vertex normals

vt 0.0418 0.0000 0.0000
vt 0.0418 0.4579 0.0000
vt 1.0000 0.4579 0.0000
vt 1.0000 0.0000 0.0000
vt 0.0000 0.4579 0.0000
vt 0.0000 0.0000 0.0000
vt 0.0000 1.0000 0.0000
vt 0.0418 1.0000 0.0000
vt 0.0000 0.0397 0.0000
vt 0.0418 0.0397 0.0000
vt 1.0000 0.0397 0.0000
vt -0.0000 0.0000 0.0000
vt 0.0397 0.0000 0.0000
vt 0.0397 0.4579 0.0000
vt 0.0397 1.0000 0.0000
vt 1.0000 1.0000 0.0000
vt 0.5436 0.9992 0.0000
vt 0.5436 0.4579 0.0000
# 18 texture coords

g carretera1
usemtl mat_limite
s off
f 1/1/1 2/2/1 3/3/2 
f 3/3/2 4/4/2 1/1/1 
f 5/5/1 2/2/1 1/1/1 
f 1/1/1 6/6/1 5/5/1 
f 2/2/1 5/5/1 7/7/2 
f 7/7/2 8/8/2 2/2/1 
f 9/9/3 10/10/3 11/1/3 
f 11/1/3 12/6/3 9/9/3 
f 13/4/4 11/1/3 10/10/3 
f 10/10/3 14/11/5 13/4/4 
f 15/5/6 13/12/4 14/13/5 
f 14/13/5 16/14/6 15/5/6 
f 17/11/7 18/10/7 19/1/7 
f 19/1/7 20/4/7 17/11/7 
f 21/6/7 19/1/7 18/10/7 
f 18/10/7 22/9/7 21/6/7 
f 22/15/8 23/14/8 24/5/8 
f 24/5/8 21/7/8 22/15/8 
f 23/14/8 9/13/8 12/12/8 
f 12/12/8 24/5/8 23/14/8 
f 6/7/3 1/8/3 10/10/3 
f 10/10/3 9/9/3 6/7/3 
f 16/14/6 14/13/5 4/4/9 
f 4/4/9 3/3/9 16/14/6 
usemtl mat_calle
f 2/7/10 25/6/10 16/4/10 
f 16/4/10 3/16/10 2/7/10 
usemtl mat_limite
f 18/17/11 25/18/11 2/3/11 
f 2/3/11 8/16/11 18/17/11 
f 22/9/7 18/10/7 8/8/7 
f 8/8/7 7/7/7 22/9/7 
f 5/3/8 23/14/8 22/15/8 
f 22/15/8 7/16/8 5/3/8 
f 6/4/8 9/13/8 23/14/8 
f 23/14/8 5/3/8 6/4/8 
f 16/3/2 25/2/2 18/8/2 
f 18/8/2 17/16/2 16/3/2 
f 26/2/12 15/3/12 20/16/12 
f 20/16/12 19/8/12 26/2/12 
f 15/5/6 16/14/6 17/15/11 
f 17/15/11 20/7/11 15/5/6 
f 11/1/13 26/2/13 24/5/13 
f 24/5/13 12/6/13 11/1/13 
f 24/5/14 26/2/14 19/8/14 
f 19/8/14 21/7/14 24/5/14 
f 11/1/15 13/4/15 15/3/15 
f 15/3/15 26/2/15 11/1/15 
usemtl mat_calle
f 14/4/16 10/6/16 1/7/16 
f 1/7/16 4/16/16 14/4/16 
# 48 faces

