# This file uses centimeters as units for non-parametric coordinates.

mtllib Tree.mtl
g default
v -0.392705 6.069313 0.855465
v 0.357155 5.693268 1.159121
v 0.769775 5.614120 0.688140
v 0.656195 5.699768 -0.038985
v 0.179945 5.744072 -0.123785
v -0.522125 6.031898 0.299685
v 1.142885 5.338425 -0.581060
v 1.098585 4.877388 -0.909744
v 0.737235 4.781128 -1.053900
v 0.276205 5.257378 -0.796170
v 0.536565 4.079063 -1.290529
v -0.019210 4.208481 -1.417585
v -0.545665 4.958344 -1.219339
v -0.450915 5.370956 -0.911869
v -1.360825 4.881416 -0.813760
v -1.660015 5.065018 -0.321660
v -1.419580 5.762032 -0.146220
v -0.996565 5.905273 -0.294795
v -1.306005 5.712677 0.580905
v -0.819355 6.018997 0.988106
v -1.498810 4.796562 0.854851
v -1.298565 4.775635 1.262020
v -0.819070 5.396996 1.583561
v -0.446895 5.776817 1.547541
v -0.910120 4.753792 1.834702
v -0.354345 4.600693 1.961754
v 0.463830 4.949852 1.749001
v 0.280230 5.441986 1.663240
v 1.160851 4.808182 1.166035
v 1.304090 5.257050 0.595450
v 1.430704 5.137756 -0.192455
v 1.468124 4.581978 -0.119180
v 1.092079 4.055519 -0.497540
v 1.012936 4.150269 -0.839035
v 1.111496 4.081062 1.236740
v 1.417805 3.974152 0.678970
v -1.087530 4.220490 1.494776
v -0.552670 3.701042 1.251545
v 0.174450 3.366203 1.559444
v 0.195370 3.773354 1.813946
v 0.795810 2.890369 0.967665
v 1.175631 3.154709 0.730430
v 0.840796 3.240360 0.003305
v 0.348670 2.941170 -0.315240
v 0.206995 3.181606 -0.899965
v 0.655865 3.604622 -0.988955
v 0.152605 2.817024 0.287985
v -0.000495 2.779606 -0.267795
v -1.347916 4.048515 1.381210
v -1.385096 3.513657 1.135756
v -0.900145 3.253269 0.417045
v -0.380700 3.216095 0.533170
v -1.234980 3.302624 -0.310075
v -0.827840 3.102375 -0.749730
v -0.520125 3.295185 -1.207870
v -0.627040 3.781830 -1.308125
v -1.710819 3.782112 -0.040755
v -1.446476 4.154289 -0.694565
v -1.821579 4.246841 0.613825
v -1.784161 3.691063 0.824980
v 0.290535 0.000000 0.126525
v 0.066600 0.000000 -0.181690
v -0.216345 1.275921 -0.181690
v -0.021335 1.165846 0.126525
v -0.295735 0.000000 -0.063960
v -0.531885 1.454025 -0.063960
v -0.295735 0.000000 0.317015
v -0.531885 1.454025 0.317015
v 0.066600 0.000000 0.434745
v -0.216345 1.275921 0.434745
v 0.097740 3.585472 0.126530
v -0.011205 3.505768 0.115080
v -0.187490 3.376823 0.119455
v -0.187490 3.376823 0.133600
v -0.011205 3.505768 0.137975
v 0.107735 1.942684 0.003035
v 0.185870 1.832611 0.126525
v -0.018690 2.120785 0.050205
v -0.018690 2.120785 0.202850
v 0.107735 1.942684 0.250020
v 0.482255 2.482254 0.003035
v 0.612460 2.517860 0.126530
v 0.271580 2.424641 0.050205
v 0.271580 2.424641 0.202850
v 0.482255 2.482254 0.250020
v 0.323300 3.048481 -0.024140
v 0.432250 3.128181 0.126525
v 0.147015 2.919529 0.033410
v 0.147015 2.919529 0.219645
v 0.323300 3.048481 0.277195
vt 0.000000 -0.085400
vt 0.180900 -0.197200
vt 0.319100 -0.111800
vt 0.319100 0.111800
vt 0.180900 0.197200
vt 0.000000 0.085400
vt 0.111800 0.378100
vt 0.177100 0.174100
vt 0.430900 0.180900
vt 0.397300 0.365700
vt 0.206000 0.487000
vt -0.000000 0.085400
vt -0.000000 -0.085400
vt 0.430900 0.180900
vt 0.319100 0.111800
vt 0.180900 0.197200
vt 0.111800 0.378100
vt 0.197200 0.430900
vt 0.378100 0.319100
vt -0.319100 0.111800
vt -0.319100 -0.111800
vt -0.180900 -0.197200
vt -0.180900 0.197200
vt -0.111800 0.378100
vt -0.194100 0.172100
vt -0.319100 0.111800
vt -0.430900 0.180900
vt -0.453600 0.254700
vt -0.258300 0.372000
vt 0.180900 -0.197200
vt 0.000000 -0.085400
vt 0.000000 0.085400
vt 0.319100 -0.111800
vt -0.430900 0.180900
vt -0.111800 0.378100
vt -0.197200 0.430900
vt -0.378100 0.319100
vt -0.180900 -0.197200
vt -0.319100 -0.111800
vt -0.180900 0.197200
vt 0.111800 -0.378100
vt 0.217900 -0.157600
vt 0.430900 -0.180900
vt 0.341100 -0.306700
vt 0.124200 -0.448600
vt 0.111800 -0.378100
vt 0.197200 -0.430900
vt 0.378100 -0.319100
vt 0.430900 -0.180900
vt -0.197200 -0.430900
vt -0.305200 -0.342300
vt -0.430900 -0.180900
vt -0.189100 -0.183500
vt -0.124900 -0.369500
vt 0.378100 -0.319100
vt 0.279500 -0.356600
vt 0.208900 -0.310700
vt 0.424900 -0.213000
vt -0.111800 -0.378100
vt -0.111800 -0.378100
vt 0.319100 0.111800
vt 0.180900 0.197200
vt 0.180900 -0.197200
vt 0.319100 -0.111800
vt 0.319100 0.111800
vt 0.180900 0.197200
vt 0.319100 0.111800
vt -0.319100 0.111800
vt -0.180900 0.197200
vt 0.180900 0.197200
vt -0.000000 0.085400
vt -0.000000 -0.085400
vt 0.180900 -0.197200
vt 0.319100 -0.111800
vt 0.319100 0.111800
vt -0.000000 0.085400
vt -0.180900 0.197200
vt -0.319100 0.111800
vt -0.319100 -0.111800
vt -0.180900 -0.197200
vt -0.000000 -0.085400
vt -0.319100 0.111800
vt 0.319100 -0.111800
vt 0.180900 -0.197200
vt 0.319100 -0.111800
vt 0.319100 0.111800
vt 0.319100 -0.111800
vt 0.180900 -0.197200
vt 0.000000 -0.085400
vt 0.000000 0.085400
vt 0.180900 0.197200
vt -0.319100 -0.111800
vt -0.319100 -0.111800
vt -0.319100 0.111800
vt -0.180900 0.197200
vt 0.000000 0.085400
vt 0.000000 -0.085400
vt -0.180900 -0.197200
vt -0.319100 0.111800
vt -0.319100 -0.111800
vt -0.180900 -0.197200
vt -0.180900 0.197200
vt 0.180900 -0.197200
vt 0.319100 -0.111800
vt -0.319100 -0.111800
vt -0.180900 0.197200
vt 0.000000 0.085400
vt 0.000000 -0.085400
vt -0.180900 -0.197200
vt 0.000000 0.085400
vt 0.319100 -0.111800
vt 0.180900 -0.197200
vt 0.000000 -0.085400
vt 0.111800 0.378100
vt -0.111800 0.378100
vt 0.111800 -0.378100
vt -0.180900 0.197200
vt -0.000000 0.085400
vt 0.180900 0.197200
vt 0.180900 0.197200
vt -0.111800 0.378100
vt 0.111800 0.378100
vt -0.180900 -0.197200
vt -0.111800 -0.378100
vt 0.180900 -0.197200
vt -0.000000 -0.085400
vt -0.180900 -0.197200
vt 0.000000 -0.085400
vt 0.180900 -0.197200
vt 0.000000 0.085400
vt -0.180900 0.197200
vt -0.111800 0.378100
vt 0.111800 0.378100
vt 0.180900 0.197200
vt -0.111800 -0.378100
vt -0.180900 -0.197200
vt 0.000000 -0.085400
vt 0.180900 -0.197200
vt 0.111800 -0.378100
vt -0.111800 -0.378100
vt 0.111800 -0.378100
vt 0.180900 -0.197200
vt -0.180900 -0.197200
vt 0.000000 0.085400
vt -0.180900 0.197200
vt 0.111800 -0.378100
vt -0.111800 -0.378100
vt 0.180900 0.197200
vt 0.111800 0.378100
vt -0.111800 0.378100
vt -0.180900 0.197200
vt 0.750000 0.000000
vt 0.950000 0.000000
vt 0.950000 1.000000
vt 0.750000 1.000000
vt 1.150000 0.000000
vt 1.150000 1.000000
vt 0.150000 0.000000
vt 0.350000 0.000000
vt 0.350000 1.000000
vt 0.150000 1.000000
vt 0.550000 0.000000
vt 0.550000 1.000000
vt 0.975500 0.654500
vt 0.793900 0.095500
vt 0.206100 0.095500
vt 0.024500 0.654500
vt 0.500000 1.000000
vt 0.500000 1.000000
vt 0.024500 0.654500
vt 0.206100 0.095500
vt 0.793900 0.095500
vt 0.975500 0.654500
vt 0.500000 1.000000
vt 0.024500 0.654500
vt 0.024500 0.654500
vt 0.500000 1.000000
vt 0.024500 0.654500
vt 0.206100 0.095500
vt 0.206100 0.095500
vt 0.024500 0.654500
vt 0.206100 0.095500
vt 0.793900 0.095500
vt 0.793900 0.095500
vt 0.206100 0.095500
vt 0.793900 0.095500
vt 0.975500 0.654500
vt 0.975500 0.654500
vt 0.793900 0.095500
vt 0.975500 0.654500
vt 0.500000 1.000000
vt 0.500000 1.000000
vt 0.975500 0.654500
vt 0.500000 1.000000
vt 0.024500 0.654500
vt 0.024500 0.654500
vt 0.500000 1.000000
vt 0.024500 0.654500
vt 0.206100 0.095500
vt 0.206100 0.095500
vt 0.024500 0.654500
vt 0.206100 0.095500
vt 0.793900 0.095500
vt 0.793900 0.095500
vt 0.206100 0.095500
vt 0.793900 0.095500
vt 0.975500 0.654500
vt 0.975500 0.654500
vt 0.793900 0.095500
vt 0.975500 0.654500
vt 0.500000 1.000000
vt 0.500000 1.000000
vt 0.975500 0.654500
vt 0.500000 1.000000
vt 0.024500 0.654500
vt 0.024500 0.654500
vt 0.500000 1.000000
vt 0.024500 0.654500
vt 0.206100 0.095500
vt 0.206100 0.095500
vt 0.024500 0.654500
vt 0.206100 0.095500
vt 0.793900 0.095500
vt 0.793900 0.095500
vt 0.206100 0.095500
vt 0.793900 0.095500
vt 0.975500 0.654500
vt 0.975500 0.654500
vt 0.793900 0.095500
vt 0.975500 0.654500
vt 0.500000 1.000000
vt 0.500000 1.000000
vt 0.975500 0.654500
vt 0.500000 1.000000
vt 0.024500 0.654500
vt 0.024500 0.654500
vt 0.206100 0.095500
vt 0.206100 0.095500
vt 0.793900 0.095500
vt 0.793900 0.095500
vt 0.975500 0.654500
vt 0.975500 0.654500
vt 0.500000 1.000000
vn 0.313911 0.949233 -0.020401
vn 0.313911 0.949233 -0.020401
vn 0.313911 0.949233 -0.020401
vn 0.313911 0.949233 -0.020401
vn 0.313911 0.949233 -0.020401
vn 0.313911 0.949233 -0.020401
vn 0.122505 0.740830 -0.660427
vn 0.122505 0.740830 -0.660427
vn 0.122505 0.740830 -0.660427
vn 0.122505 0.740830 -0.660427
vn 0.313911 0.949233 -0.020401
vn 0.313911 0.949233 -0.020401
vn 0.122505 0.740830 -0.660427
vn 0.200296 0.439590 -0.875581
vn 0.200296 0.439590 -0.875581
vn 0.200296 0.439590 -0.875581
vn 0.122505 0.740830 -0.660427
vn 0.200296 0.439590 -0.875581
vn -0.455199 0.521899 -0.721398
vn -0.455199 0.521899 -0.721398
vn -0.455199 0.521899 -0.721398
vn -0.455199 0.521899 -0.721398
vn 0.200296 0.439590 -0.875581
vn 0.200296 0.439590 -0.875581
vn -0.329993 0.943979 -0.002800
vn 0.313911 0.949233 -0.020401
vn 0.313911 0.949233 -0.020401
vn -0.329993 0.943979 -0.002800
vn -0.455199 0.521899 -0.721398
vn -0.455199 0.521899 -0.721398
vn -0.750688 0.420093 0.509892
vn -0.750688 0.420093 0.509892
vn -0.329993 0.943979 -0.002800
vn -0.329993 0.943979 -0.002800
vn -0.750688 0.420093 0.509892
vn -0.750688 0.420093 0.509892
vn -0.035900 0.314704 0.948511
vn -0.035900 0.314704 0.948511
vn -0.035900 0.314704 0.948511
vn -0.035900 0.314704 0.948511
vn -0.750688 0.420093 0.509892
vn -0.750688 0.420093 0.509892
vn 0.633984 0.561486 0.531787
vn 0.313911 0.949233 -0.020401
vn 0.633984 0.561486 0.531787
vn 0.313911 0.949233 -0.020401
vn -0.035900 0.314704 0.948511
vn -0.035900 0.314704 0.948511
vn 0.894469 -0.070198 -0.441585
vn 0.894469 -0.070198 -0.441585
vn 0.894469 -0.070198 -0.441585
vn 0.894469 -0.070198 -0.441585
vn 0.122505 0.740830 -0.660427
vn 0.122505 0.740830 -0.660427
vn 0.633984 0.561486 0.531787
vn 0.964388 0.078099 0.252697
vn 0.964388 0.078099 0.252697
vn 0.633984 0.561486 0.531787
vn 0.894469 -0.070198 -0.441585
vn 0.894469 -0.070198 -0.441585
vn -0.388506 -0.495608 0.776812
vn -0.388506 -0.495608 0.776812
vn -0.388506 -0.495608 0.776812
vn -0.388506 -0.495608 0.776812
vn -0.035900 0.314704 0.948511
vn -0.035900 0.314704 0.948511
vn 0.964388 0.078099 0.252697
vn 0.964388 0.078099 0.252697
vn 0.630068 -0.330783 0.702564
vn 0.630068 -0.330783 0.702564
vn -0.388506 -0.495608 0.776812
vn -0.388506 -0.495608 0.776812
vn 0.732288 -0.577691 -0.360594
vn 0.732288 -0.577691 -0.360594
vn 0.732288 -0.577691 -0.360594
vn 0.732288 -0.577691 -0.360594
vn 0.894469 -0.070198 -0.441585
vn 0.894469 -0.070198 -0.441585
vn 0.442087 -0.874575 -0.199194
vn 0.442087 -0.874575 -0.199194
vn 0.732288 -0.577691 -0.360594
vn 0.732288 -0.577691 -0.360594
vn 0.630068 -0.330783 0.702564
vn 0.630068 -0.330783 0.702564
vn -0.006300 -0.747560 0.664164
vn -0.006300 -0.747560 0.664164
vn -0.006300 -0.747560 0.664164
vn -0.006300 -0.747560 0.664164
vn -0.388506 -0.495608 0.776812
vn -0.388506 -0.495608 0.776812
vn -0.006300 -0.747560 0.664164
vn -0.370508 -0.911220 0.180004
vn -0.370508 -0.911220 0.180004
vn -0.006300 -0.747560 0.664164
vn 0.442087 -0.874575 -0.199194
vn 0.442087 -0.874575 -0.199194
vn 0.732288 -0.577691 -0.360594
vn 0.191790 -0.380080 -0.904851
vn 0.191790 -0.380080 -0.904851
vn 0.732288 -0.577691 -0.360594
vn 0.200296 0.439590 -0.875581
vn 0.200296 0.439590 -0.875581
vn 0.191790 -0.380080 -0.904851
vn 0.191790 -0.380080 -0.904851
vn -0.711025 -0.379413 -0.592021
vn -0.711025 -0.379413 -0.592021
vn -0.370508 -0.911220 0.180004
vn -0.370508 -0.911220 0.180004
vn -0.006300 -0.747560 0.664164
vn -0.006300 -0.747560 0.664164
vn -0.816311 0.097601 0.569307
vn -0.750688 0.420093 0.509892
vn -0.816311 0.097601 0.569307
vn -0.750688 0.420093 0.509892
vn -0.455199 0.521899 -0.721398
vn -0.455199 0.521899 -0.721398
vn -0.711025 -0.379413 -0.592021
vn -0.711025 -0.379413 -0.592021
vn -0.816311 0.097601 0.569307
vn -0.816311 0.097601 0.569307
vn 0.313911 0.949233 -0.020401
vn 0.122505 0.740830 -0.660427
vn 0.200296 0.439590 -0.875581
vn 0.313911 0.949233 -0.020401
vn -0.455199 0.521899 -0.721398
vn -0.035900 0.314704 0.948511
vn 0.313911 0.949233 -0.020401
vn 0.313911 0.949233 -0.020401
vn -0.329993 0.943979 -0.002800
vn -0.750688 0.420093 0.509892
vn 0.313911 0.949233 -0.020401
vn 0.633984 0.561486 0.531787
vn 0.313911 0.949233 -0.020401
vn 0.894469 -0.070198 -0.441585
vn 0.122505 0.740830 -0.660427
vn -0.035900 0.314704 0.948511
vn -0.388506 -0.495608 0.776812
vn -0.035900 0.314704 0.948511
vn 0.964388 0.078099 0.252697
vn 0.633984 0.561486 0.531787
vn 0.732288 -0.577691 -0.360594
vn 0.894469 -0.070198 -0.441585
vn 0.894469 -0.070198 -0.441585
vn 0.964388 0.078099 0.252697
vn 0.630068 -0.330783 0.702564
vn -0.388506 -0.495608 0.776812
vn -0.006300 -0.747560 0.664164
vn -0.388506 -0.495608 0.776812
vn 0.630068 -0.330783 0.702564
vn 0.442087 -0.874575 -0.199194
vn 0.732288 -0.577691 -0.360594
vn 0.442087 -0.874575 -0.199194
vn 0.732288 -0.577691 -0.360594
vn -0.370508 -0.911220 0.180004
vn 0.191790 -0.380080 -0.904851
vn -0.370508 -0.911220 0.180004
vn -0.006300 -0.747560 0.664164
vn -0.006300 -0.747560 0.664164
vn -0.816311 0.097601 0.569307
vn -0.711025 -0.379413 -0.592021
vn 0.200296 0.439590 -0.875581
vn 0.191790 -0.380080 -0.904851
vn 0.200296 0.439590 -0.875581
vn -0.455199 0.521899 -0.721398
vn -0.711025 -0.379413 -0.592021
vn -0.329993 0.943979 -0.002800
vn -0.455199 0.521899 -0.721398
vn -0.455199 0.521899 -0.721398
vn -0.750688 0.420093 0.509892
vn -0.816311 0.097601 0.569307
vn -0.035900 0.314704 0.948511
vn -0.750688 0.420093 0.509892
vn -0.750688 0.420093 0.509892
vn -0.388506 -0.495608 0.776812
vn -0.006300 -0.747560 0.664164
vn 0.894469 -0.070198 -0.441585
vn 0.732288 -0.577691 -0.360594
vn 0.200296 0.439590 -0.875581
vn 0.122505 0.740830 -0.660427
vn 0.122505 0.740830 -0.660427
vn 0.826473 0.201329 -0.525746
vn 0.826473 0.201329 -0.525746
vn 0.826473 0.201329 -0.525746
vn 0.826473 0.201329 -0.525746
vn -0.342655 -0.065155 -0.937199
vn -0.779797 -0.126600 -0.613098
vn -0.898974 -0.153596 -0.410188
vn -0.342655 -0.065155 -0.937199
vn -0.779797 -0.126600 -0.613098
vn -0.782388 -0.137198 0.607491
vn -0.901118 -0.146403 0.408108
vn -0.898974 -0.153596 -0.410188
vn -0.782388 -0.137198 0.607491
vn 0.386100 0.106400 0.916300
vn 0.062499 0.030499 0.997579
vn -0.901118 -0.146403 0.408108
vn 0.386100 0.106400 0.916300
vn 0.826477 0.201330 0.525740
vn 0.826477 0.201330 0.525740
vn 0.062499 0.030499 0.997579
vn 0.386100 0.106400 0.916300
vn -0.782388 -0.137198 0.607491
vn -0.779797 -0.126600 -0.613098
vn 0.000000 -1.000000 0.000000
vn 0.000000 -1.000000 0.000000
vn -0.590405 0.807107 0.000000
vn -0.590405 0.807107 0.000000
vn -0.590405 0.807107 0.000000
vn -0.590405 0.807107 0.000000
vn -0.590405 0.807107 0.000000
vn 0.768371 -0.223024 -0.599889
vn 0.768371 -0.223024 -0.599889
vn 0.768382 -0.222995 -0.599886
vn 0.768382 -0.222995 -0.599886
vn -0.121353 0.289032 -0.949597
vn -0.898974 -0.153596 -0.410188
vn -0.121400 0.289000 -0.949601
vn 0.768382 -0.222995 -0.599886
vn -0.898974 -0.153596 -0.410188
vn -0.901118 -0.146403 0.408108
vn -0.792486 0.609890 0.000000
vn -0.121400 0.289000 -0.949601
vn -0.901118 -0.146403 0.408108
vn 0.062499 0.030499 0.997579
vn -0.121400 0.289000 0.949601
vn -0.792486 0.609890 0.000000
vn 0.062499 0.030499 0.997579
vn 0.768377 -0.223028 0.599880
vn 0.768382 -0.222995 -0.599886
vn -0.121400 0.289000 0.949601
vn 0.768382 -0.222995 -0.599886
vn 0.768382 -0.222995 -0.599886
vn 0.631076 -0.412784 -0.656775
vn 0.631076 -0.412784 -0.656775
vn 0.768382 -0.222995 -0.599886
vn -0.121400 0.289000 -0.949601
vn -0.210391 0.165793 -0.963457
vn 0.631076 -0.412784 -0.656775
vn -0.121400 0.289000 -0.949601
vn -0.792486 0.609890 0.000000
vn -0.723072 0.690773 0.000000
vn -0.210391 0.165793 -0.963457
vn -0.792486 0.609890 0.000000
vn -0.121400 0.289000 0.949601
vn -0.210391 0.165793 0.963457
vn -0.723072 0.690773 0.000000
vn -0.121400 0.289000 0.949601
vn 0.768382 -0.222995 -0.599886
vn 0.631076 -0.412784 -0.656775
vn -0.210391 0.165793 0.963457
vn 0.631076 -0.412784 -0.656775
vn 0.631076 -0.412784 -0.656775
vn 0.700395 0.185999 -0.689095
vn 0.700395 0.185999 -0.689095
vn 0.631076 -0.412784 -0.656775
vn -0.210391 0.165793 -0.963457
vn -0.215708 -0.097904 -0.971537
vn 0.700395 0.185999 -0.689095
vn -0.210391 0.165793 -0.963457
vn -0.723072 0.690773 0.000000
vn -0.969753 -0.244088 0.000000
vn -0.215708 -0.097904 -0.971537
vn -0.723072 0.690773 0.000000
vn -0.210391 0.165793 0.963457
vn -0.215708 -0.097904 0.971537
vn -0.969753 -0.244088 0.000000
vn -0.210391 0.165793 0.963457
vn 0.631076 -0.412784 -0.656775
vn 0.700395 0.185999 -0.689095
vn -0.215708 -0.097904 0.971537
vn 0.700395 0.185999 -0.689095
vn 0.700395 0.185999 -0.689095
vn -0.590405 0.807107 0.000000
vn -0.590405 0.807107 0.000000
vn 0.700395 0.185999 -0.689095
vn -0.215708 -0.097904 -0.971537
vn -0.590405 0.807107 0.000000
vn -0.590405 0.807107 0.000000
vn -0.215708 -0.097904 -0.971537
vn -0.969753 -0.244088 0.000000
vn -0.590405 0.807107 0.000000
vn -0.590405 0.807107 0.000000
vn -0.969753 -0.244088 0.000000
vn -0.215708 -0.097904 0.971537
vn -0.590405 0.807107 0.000000
vn -0.590405 0.807107 0.000000
vn -0.215708 -0.097904 0.971537
vn 0.700395 0.185999 -0.689095
vn -0.590405 0.807107 0.000000
vn -0.590405 0.807107 0.000000
s 1
g tree
usemtl lambert2SG
f 5/5/1 6/6/2 1/1/3 2/2/4
f 5/5/1 2/2/4 3/3/5 4/4/6
s 2
f 8/61/7 9/9/8 10/10/9 7/8/10
f 4/7/11 7/8/10 10/10/9 5/11/12
s 3
f 9/62/13 11/12/14 12/13/15 13/63/16
f 10/65/17 9/62/13 13/63/16 14/64/18
s 4
f 16/16/19 17/17/20 15/15/21
f 15/15/21 17/17/20 18/18/22 14/19/23
f 13/14/24 15/15/21 14/19/23
s 5
f 20/22/25 1/1/26 6/6/27 19/21/28
f 19/21/28 6/6/27 18/23/29 17/20/30
s 6
f 23/27/31 24/28/32 20/29/33 19/24/34
f 22/26/35 23/27/31 19/24/34 21/25/36
s 7
f 27/66/37 28/67/38 26/32/39
f 25/31/40 26/32/39 28/67/38 23/30/41
f 23/30/41 28/67/38 24/33/42
s 8
f 30/69/43 3/35/44 29/68/45
f 29/68/45 3/35/44 2/36/46 28/37/47
f 27/34/48 29/68/45 28/37/47
s 9
f 33/73/49 34/74/50 32/72/51
f 31/71/52 32/72/51 34/74/50 8/75/53
f 7/70/54 31/71/52 8/75/53
s 10
f 29/78/55 35/79/56 36/80/57 30/77/58
f 31/76/59 30/77/58 36/80/57 32/81/60
s 11
f 38/39/61 39/82/62 40/40/63 37/38/64
f 37/38/64 40/40/63 26/32/65 25/31/66
s 12
f 36/43/67 35/44/68 42/83/69
f 41/42/70 42/83/69 35/44/68 39/41/71
f 39/41/71 35/44/68 40/45/72
s 13
f 44/47/73 45/48/74 46/49/75 43/46/76
f 43/46/76 46/49/75 34/85/77 33/84/78
s 14
f 47/89/79 48/90/80 44/91/81 43/86/82
f 47/89/79 43/86/82 42/87/83 41/88/84
s 15
f 51/92/85 52/53/86 50/52/87
f 50/52/87 52/53/86 49/51/88
f 49/51/88 52/53/86 38/54/89 37/50/90
s 16
f 51/93/91 53/94/92 54/95/93 52/98/94
f 47/97/95 52/98/94 54/95/93 48/96/96
s 17
f 45/99/97 55/100/98 56/101/99 46/102/100
f 11/12/101 46/102/100 56/101/99 12/13/102
s 18
f 56/58/103 55/55/104 58/104/105
f 57/103/106 58/104/105 55/55/104 54/56/107
f 54/56/107 53/57/108 57/103/106
s 19
f 50/109/109 49/105/110 60/108/111
f 60/108/111 49/105/110 22/26/112 59/107/113
f 22/26/112 21/106/114 59/107/113
s 20
f 16/16/115 15/15/116 58/111/117 57/112/118
f 59/110/119 16/16/115 57/112/118 60/113/120
s 21
f 5/5/121 10/114/122 14/115/123 6/6/124
f 14/115/123 18/23/125 6/6/124
s 22
f 28/116/126 2/2/127 1/1/128 20/22/129
f 20/22/129 24/59/130 28/116/126
s 23
f 3/35/131 30/117/132 4/7/133
f 4/7/133 30/117/132 31/118/134 7/119/135
s 24
f 26/32/136 40/40/137 27/120/138
f 27/120/138 40/40/137 35/121/139 29/122/140
s 25
f 43/46/141 33/125/142 32/126/143 36/123/144
f 36/123/144 42/124/145 43/46/141
s 26
f 38/60/146 52/127/147 39/41/148
f 41/129/149 39/41/148 52/127/147 47/128/150
s 27
f 44/134/151 48/130/152 45/133/153
f 48/130/152 54/131/154 55/132/155 45/133/153
s 28
f 53/139/156 51/135/157 50/136/158 60/137/159
f 60/137/159 57/138/160 53/139/156
s 29
f 12/13/161 56/143/162 13/142/163
f 15/141/164 13/142/163 56/143/162 58/140/165
s 30
f 19/24/166 17/17/167 16/16/168 21/145/169
f 59/144/170 21/145/169 16/16/168
s 31
f 25/31/171 23/30/172 22/146/173 37/38/174
f 49/147/175 37/38/174 22/146/173
s 32
f 34/150/176 46/151/177 11/12/178 8/149/179
f 9/148/180 8/149/179 11/12/178
s off
usemtl lambert3SG
f 61/152/181 62/153/182 63/154/183 64/155/184
f 62/153/185 65/156/186 66/157/187 63/154/188
f 65/158/189 67/159/190 68/160/191 66/161/192
f 67/159/193 69/162/194 70/163/195 68/160/196
f 69/162/197 61/152/198 64/155/199 70/163/200
f 69/164/201 67/165/202 65/166/203 62/167/204 61/168/205
f 71/169/206 72/170/207 73/171/208 74/172/209 75/173/210
f 64/174/211 63/175/212 76/176/213 77/177/214
f 63/178/215 66/179/216 78/180/217 76/181/218
f 66/182/219 68/183/220 79/184/221 78/185/222
f 68/186/223 70/187/224 80/188/225 79/189/226
f 70/190/227 64/191/228 77/192/229 80/193/230
f 77/194/231 76/195/232 81/196/233 82/197/234
f 76/198/235 78/199/236 83/200/237 81/201/238
f 78/202/239 79/203/240 84/204/241 83/205/242
f 79/206/243 80/207/244 85/208/245 84/209/246
f 80/210/247 77/211/248 82/212/249 85/213/250
f 82/214/251 81/215/252 86/216/253 87/217/254
f 81/218/255 83/219/256 88/220/257 86/221/258
f 83/222/259 84/223/260 89/224/261 88/225/262
f 84/226/263 85/227/264 90/228/265 89/229/266
f 85/230/267 82/231/268 87/232/269 90/233/270
f 87/234/271 86/235/272 72/170/273 71/169/274
f 86/236/275 88/237/276 73/171/277 72/170/278
f 88/238/279 89/239/280 74/172/281 73/171/282
f 89/240/283 90/241/284 75/173/285 74/172/286
f 90/242/287 87/243/288 71/169/289 75/173/290
